<svg xmlns="http://www.w3.org/2000/svg" viewBox="0 0 64 64">
  <rect width="64" height="64" rx="20" fill="#fff4db"/>
  <circle cx="32" cy="32" r="24" fill="#fffaf1"/>
  <path d="M22.4 28.7c2.4 0 4.3-2.3 4.3-5.1s-1.9-5.1-4.3-5.1-4.3 2.3-4.3 5.1 1.9 5.1 4.3 5.1Zm19.2 0c2.4 0 4.3-2.3 4.3-5.1s-1.9-5.1-4.3-5.1-4.3 2.3-4.3 5.1 1.9 5.1 4.3 5.1Zm-14.9 6.1c1.9-3.1 8.7-3.1 10.6 0l4.4 7.1c1.8 2.9-.5 6.6-3.8 6.1l-2.9-.5a18.6 18.6 0 0 0-6 0l-2.9.5c-3.3.5-5.6-3.2-3.8-6.1l4.4-7.1Zm1.2-5.6c2.2 0 4-2.5 4-5.5s-1.8-5.5-4-5.5-4 2.5-4 5.5 1.8 5.5 4 5.5Zm8.2 0c2.2 0 4-2.5 4-5.5s-1.8-5.5-4-5.5-4 2.5-4 5.5 1.8 5.5 4 5.5Z" fill="#e97829"/>
  <path d="M16 49c8.8 5.5 23.5 5.6 32-.3" fill="none" stroke="#8f9e73" stroke-width="4" stroke-linecap="round"/>
</svg>
